g Eyelashes
v 0.01989291 0.06510378 0.178616
v 0.01994941 0.06507781 0.1786152
v 0.01995978 0.06509215 0.1785943
v 0.01987871 0.06509176 0.1786371
v 0.01992639 0.06505184 0.1786544
v 0.01990245 0.06503479 0.1786796
v 0.01985567 0.0650751 0.1786595
v 0.01986923 0.0650189 0.178707
v 0.01983119 0.06506308 0.1786762
v 0.01981977 0.06500456 0.1787288
v 0.01979721 0.06505688 0.1786941
v 0.01976868 0.06499642 0.1787428
v 0.01975481 0.06505301 0.17871
v 0.01972103 0.06499681 0.1787525
v 0.01972034 0.06505417 0.1787078
v 0.01968196 0.06505921 0.1787061
v 0.01967337 0.06500378 0.1787497
v 0.01962546 0.06501154 0.1787389
v 0.01964561 0.06506928 0.1786996
v 0.01959883 0.06501967 0.1787365
v 0.01961529 0.06507083 0.1786947
v 0.0195731 0.06502897 0.1787346
v 0.01959546 0.06506928 0.1786927
v 0.01995508 0.06510649 0.1785957
v 0.01999826 0.06510378 0.1786215
v 0.01998736 0.06513207 0.1786595
v 0.01994069 0.06512354 0.178635
v 0.01992265 0.06510571 0.1785906
v 0.01990631 0.06512122 0.1786165
v 0.01988503 0.0651406 0.1786543
v 0.01991608 0.06514796 0.1786845
v 0.01995725 0.0651685 0.1787119
v 0.0199225 0.06519486 0.1787512
v 0.0198868 0.06517082 0.1787177
v 0.0198587 0.06515998 0.1786887
v 0.019869 0.06521152 0.1787915
v 0.01984333 0.06518517 0.1787527
v 0.01982644 0.06517587 0.1787074
v 0.01980313 0.06522392 0.17882
v 0.0197937 0.06519641 0.1787778
v 0.01978589 0.06518594 0.1787246
v 0.01973633 0.06519796 0.1787838
v 0.01973868 0.0652247 0.1788293
v 0.01974396 0.0651871 0.1787339
v 0.01965622 0.06520571 0.1788314
v 0.01967077 0.06518207 0.1787848
v 0.01969587 0.06518091 0.1787346
v 0.01959972 0.0651716 0.178817
v 0.01962578 0.06515649 0.1787759
v 0.01953968 0.06512742 0.1787985
v 0.01965014 0.06516346 0.1787277
v 0.01956954 0.06511502 0.1787616
v 0.01960387 0.06512974 0.1787172
v 0.01882759 0.06510378 0.178616
v 0.01876034 0.06509215 0.1785943
v 0.01877072 0.06507781 0.1786152
v 0.0188418 0.06509176 0.1786371
v 0.01879373 0.06505184 0.1786544
v 0.01881766 0.06503479 0.1786796
v 0.01886484 0.0650751 0.1786595
v 0.01885088 0.0650189 0.178707
v 0.01888931 0.06506308 0.1786762
v 0.01890035 0.06500456 0.1787288
v 0.0189233 0.06505688 0.1786941
v 0.01895144 0.06499642 0.1787428
v 0.01896571 0.06505301 0.17871
v 0.01899908 0.06499681 0.1787525
v 0.01900017 0.06505417 0.1787078
v 0.01903855 0.06505921 0.1787061
v 0.01904675 0.06500378 0.1787497
v 0.01909466 0.06501154 0.1787389
v 0.01907489 0.06506928 0.1786996
v 0.01912129 0.06501967 0.1787365
v 0.01910522 0.06507083 0.1786947
v 0.01914702 0.06502897 0.1787346
v 0.01912506 0.06506928 0.1786927
v 0.01876504 0.06510649 0.1785957
v 0.01873276 0.06513207 0.1786595
v 0.01872187 0.06510378 0.1786215
v 0.01877942 0.06512354 0.178635
v 0.01879787 0.06510571 0.1785906
v 0.0188142 0.06512122 0.1786165
v 0.01883549 0.0651406 0.1786543
v 0.01880404 0.06514796 0.1786845
v 0.01876287 0.0651685 0.1787119
v 0.01879899 0.06519563 0.1787525
v 0.01883463 0.0651716 0.1787189
v 0.01886181 0.06515998 0.1786887
v 0.01885113 0.06521152 0.1787915
v 0.01887679 0.06518517 0.1787527
v 0.01889407 0.06517587 0.1787074
v 0.01891698 0.06522392 0.17882
v 0.01892642 0.06519641 0.1787778
v 0.01893462 0.06518594 0.1787246
v 0.01898379 0.06519796 0.1787838
v 0.01898144 0.0652247 0.1788293
v 0.01897655 0.0651871 0.1787339
v 0.01906389 0.06520571 0.1788314
v 0.01904935 0.06518207 0.1787848
v 0.01902463 0.06518091 0.1787346
v 0.01912039 0.0651716 0.178817
v 0.01909434 0.06515649 0.1787759
v 0.01918044 0.06512742 0.1787985
v 0.01907037 0.06516346 0.1787277
v 0.01915058 0.06511502 0.1787616
v 0.01911664 0.06512974 0.1787172

vn 0.3339802 0.6910325 0.6410391
vn 0.331579 0.6927717 0.6404083
vn 0.3287806 0.6947876 0.6396667
vn 0.3006879 0.6690229 0.6797023
vn 0.2977717 0.6671549 0.682815
vn 0.2465268 0.6519452 0.7170718
vn 0.2452145 0.652495 0.7170218
vn 0.2145754 0.6467609 0.7318864
vn 0.2137298 0.6459556 0.7328444
vn 0.1930712 0.5976398 0.7781711
vn 0.1931708 0.5981234 0.7777747
vn 0.1362798 0.565558 0.8133708
vn 0.1321572 0.5658004 0.8138822
vn 0.06486776 0.5908958 0.8041357
vn 0.06312504 0.5928765 0.8028155
vn 0.0009907869 0.6054906 0.7958518
vn 0.005734852 0.6064927 0.7950684
vn -0.01923143 0.597471 0.8016599
vn -0.01997034 0.5974512 0.8016565
vn 0.02221125 0.6302468 0.7760772
vn 0.02032701 0.6277137 0.7781789
vn 0.04757035 0.663495 0.7466668
vn 0.04757035 0.6634949 0.7466668
vn -0.1481898 -0.8918453 0.4273776
vn -0.1939873 -0.8728325 0.4478085
vn -0.09530476 -0.8705603 0.482744
vn -0.1192238 -0.8917963 0.4364458
vn -0.1013648 -0.9084891 0.4054289
vn -0.1249861 -0.9110152 0.3929756
vn -0.151103 -0.9034593 0.4011596
vn -0.07074244 -0.8743622 0.48009
vn 0.00456728 -0.838783 0.5444467
vn 0.07033078 -0.8413235 0.5359368
vn -0.03306992 -0.8819505 0.4701805
vn -0.1455927 -0.91183 0.3838865
vn 0.09291893 -0.8515121 0.5160361
vn -0.009356689 -0.9134046 0.406945
vn -0.1297829 -0.9495469 0.2855117
vn 0.06040385 -0.848848 0.5251747
vn 0.01231613 -0.918547 0.3951196
vn -0.06623693 -0.9742862 0.2153582
vn 0.1231216 -0.9237259 0.3627278
vn 0.1285351 -0.8518455 0.5077776
vn 0.08401351 -0.9776185 0.192883
vn 0.2790942 -0.8191782 0.5010524
vn 0.3035672 -0.8857007 0.3512565
vn 0.2738551 -0.9470403 0.1676848
vn 0.3711917 -0.7645462 0.5269591
vn 0.4395017 -0.8261731 0.3525283
vn 0.3930285 -0.7419804 0.5431332
vn 0.4669286 -0.8706091 0.1549758
vn 0.4660839 -0.786231 0.4057176
vn 0.5577167 -0.8139428 0.1626318
vn -0.3322891 0.692128 0.6407361
vn -0.3270182 0.6956834 0.6395966
vn -0.3298483 0.6937791 0.6402114
vn -0.2991691 0.6700315 0.6793789
vn -0.29644 0.6682648 0.682309
vn -0.2455569 0.6528723 0.7165609
vn -0.2441693 0.6534559 0.7165031
vn -0.2139237 0.6476983 0.731248
vn -0.2130058 0.6468132 0.7322987
vn -0.1926828 0.59867 0.7774751
vn -0.1927297 0.5989012 0.7772853
vn -0.1363167 0.5662036 0.8129152
vn -0.1318437 0.5664449 0.8134847
vn -0.06495361 0.5911042 0.8039756
vn -0.06306841 0.5932392 0.802552
vn -0.0008414492 0.6054685 0.7958688
vn -0.005871021 0.6065511 0.7950228
vn 0.01932138 0.5973873 0.8017201
vn 0.01993856 0.5973681 0.8017192
vn -0.02214826 0.6302321 0.7760908
vn -0.02044079 0.6279316 0.7780001
vn -0.04762316 0.663707 0.7464751
vn -0.04762315 0.663707 0.746475
vn 0.1477323 -0.8918003 0.4276301
vn 0.09531177 -0.8705548 0.4827524
vn 0.1940207 -0.8728191 0.44782
vn 0.1186328 -0.8917387 0.4367247
vn 0.1003471 -0.9083998 0.4058821
vn 0.1238964 -0.9109457 0.3934816
vn 0.1499016 -0.9033495 0.4018573
vn 0.07000858 -0.874341 0.4802359
vn -0.004657858 -0.8390298 0.5440655
vn -0.07170746 -0.8419933 0.534701
vn 0.03118338 -0.8824264 0.4694157
vn 0.1437468 -0.9112543 0.3859435
vn -0.09419118 -0.8519564 0.5150712
vn 0.008031655 -0.9134429 0.4068877
vn 0.1278539 -0.9495162 0.286483
vn -0.06040429 -0.8488511 0.5251696
vn -0.01225348 -0.9184766 0.3952854
vn 0.06573696 -0.9742306 0.2157623
vn -0.1229261 -0.9238873 0.3623832
vn -0.1285297 -0.8518521 0.5077677
vn -0.08443914 -0.977716 0.1922016
vn -0.2791005 -0.8191831 0.501041
vn -0.3036301 -0.8860766 0.3502528
vn -0.2745019 -0.947214 0.1656334
vn -0.371188 -0.7645507 0.5269552
vn -0.4399702 -0.8266454 0.3508325
vn -0.3930109 -0.7419907 0.5431318
vn -0.4679804 -0.8706377 0.1516059
vn -0.4668333 -0.7866896 0.4039629
vn -0.5587577 -0.8140364 0.1585393

vt 0.551678 0.614218
vt 0.565499 0.609283
vt 0.562092 0.60265
vt 0.554823 0.629698
vt 0.567813 0.625959
vt 0.568128 0.633464
vt 0.555337 0.635516
vt 0.568444 0.64097
vt 0.555852 0.641334
vt 0.569003 0.653265
vt 0.557315 0.652701
vt 0.568982 0.659277
vt 0.557042 0.657978
vt 0.568962 0.665289
vt 0.556769 0.663255
vt 0.555791 0.672737
vt 0.567726 0.676229
vt 0.565674 0.685228
vt 0.553936 0.680915
vt 0.56486 0.690493
vt 0.5534 0.68477
vt 0.564045 0.695757
vt 0.552863 0.688624
vt 0.580536 0.695102
vt 0.589518 0.696159
vt 0.592035 0.68717
vt 0.583119 0.686618
vt 0.569563 0.693488
vt 0.571148 0.685095
vt 0.573381 0.672524
vt 0.584284 0.674309
vt 0.594133 0.675579
vt 0.595237 0.669096
vt 0.584803 0.667896
vt 0.57402 0.666416
vt 0.59634 0.662612
vt 0.585321 0.661483
vt 0.574659 0.660308
vt 0.59545 0.649102
vt 0.585605 0.649671
vt 0.576275 0.648906
vt 0.584965 0.637768
vt 0.593658 0.636493
vt 0.576062 0.638748
vt 0.591525 0.625134
vt 0.58278 0.626313
vt 0.574914 0.628722
vt 0.589297 0.615552
vt 0.581045 0.617351
vt 0.586978 0.603773
vt 0.573313 0.621497
vt 0.579343 0.606872
vt 0.57113 0.612695
vt 0.54824 0.614218
vt 0.537826 0.60265
vt 0.53442 0.609283
vt 0.545095 0.629698
vt 0.532105 0.625959
vt 0.53179 0.633464
vt 0.544581 0.635516
vt 0.531475 0.64097
vt 0.544066 0.641334
vt 0.530915 0.653265
vt 0.542603 0.652701
vt 0.530936 0.659277
vt 0.542876 0.657978
vt 0.530956 0.665289
vt 0.543149 0.663255
vt 0.544127 0.672737
vt 0.532193 0.676229
vt 0.534244 0.685228
vt 0.545982 0.680915
vt 0.535058 0.690493
vt 0.546519 0.68477
vt 0.535873 0.695757
vt 0.547056 0.688624
vt 0.519382 0.695102
vt 0.507883 0.68717
vt 0.5104 0.696159
vt 0.516799 0.686618
vt 0.530355 0.693488
vt 0.528771 0.685095
vt 0.526537 0.672524
vt 0.515634 0.674309
vt 0.505785 0.675579
vt 0.504645 0.668881
vt 0.515098 0.667684
vt 0.525877 0.666214
vt 0.503578 0.662612
vt 0.514597 0.661483
vt 0.525259 0.660308
vt 0.504468 0.649102
vt 0.514313 0.649671
vt 0.523643 0.648906
vt 0.514953 0.637768
vt 0.50626 0.636493
vt 0.523856 0.638748
vt 0.508394 0.625134
vt 0.517138 0.626313
vt 0.525004 0.628722
vt 0.510621 0.615552
vt 0.518873 0.617351
vt 0.51294 0.603773
vt 0.526605 0.621497
vt 0.520575 0.606872
vt 0.528788 0.612695

usemtl GuardEyelashes
usemap GuardEyelashes
f 1/1/1 2/2/2 3/3/3
f 4/4/4 2/2/2 1/1/1
f 4/4/4 5/5/5 2/2/2
f 4/4/4 6/6/6 5/5/5
f 4/4/4 7/7/7 6/6/6
f 7/7/7 8/8/8 6/6/6
f 7/7/7 9/9/9 8/8/8
f 9/9/9 10/10/10 8/8/8
f 9/9/9 11/11/11 10/10/10
f 11/11/11 12/12/12 10/10/10
f 11/11/11 13/13/13 12/12/12
f 13/13/13 14/14/14 12/12/12
f 13/13/13 15/15/15 14/14/14
f 16/16/16 14/14/14 15/15/15
f 16/16/16 17/17/17 14/14/14
f 16/16/16 18/18/18 17/17/17
f 16/16/16 19/19/19 18/18/18
f 19/19/19 20/20/20 18/18/18
f 19/19/19 21/21/21 20/20/20
f 21/21/21 22/22/22 20/20/20
f 21/21/21 23/23/23 22/22/22
f 24/24/24 25/25/25 26/26/26
f 24/24/24 26/26/26 27/27/27
f 28/28/28 24/24/24 27/27/27
f 28/28/28 27/27/27 29/29/29
f 27/27/27 30/30/30 29/29/29
f 26/26/26 31/31/31 27/27/27
f 27/27/27 31/31/31 30/30/30
f 26/26/26 32/32/32 31/31/31
f 31/31/31 32/32/32 33/33/33
f 30/30/30 31/31/31 34/34/34
f 31/31/31 33/33/33 34/34/34
f 30/30/30 34/34/34 35/35/35
f 34/34/34 33/33/33 36/36/36
f 35/35/35 34/34/34 37/37/37
f 34/34/34 36/36/36 37/37/37
f 35/35/35 37/37/37 38/38/38
f 37/37/37 36/36/36 39/39/39
f 38/38/38 37/37/37 40/40/40
f 37/37/37 39/39/39 40/40/40
f 38/38/38 40/40/40 41/41/41
f 42/42/42 40/40/40 39/39/39
f 41/41/41 40/40/40 42/42/42
f 42/42/42 39/39/39 43/43/43
f 41/41/41 42/42/42 44/44/44
f 42/42/42 43/43/43 45/45/45
f 44/44/44 42/42/42 46/46/46
f 42/42/42 45/45/45 46/46/46
f 44/44/44 46/46/46 47/47/47
f 46/46/46 45/45/45 48/48/48
f 47/47/47 46/46/46 49/49/49
f 46/46/46 48/48/48 49/49/49
f 49/49/49 48/48/48 50/50/50
f 47/47/47 49/49/49 51/51/51
f 49/49/49 50/50/50 52/52/52
f 51/51/51 49/49/49 52/52/52
f 51/51/51 52/52/52 53/53/53
f 54/54/54 55/55/55 56/56/56
f 57/57/57 54/54/54 56/56/56
f 57/57/57 56/56/56 58/58/58
f 57/57/57 58/58/58 59/59/59
f 57/57/57 59/59/59 60/60/60
f 60/60/60 59/59/59 61/61/61
f 60/60/60 61/61/61 62/62/62
f 62/62/62 61/61/61 63/63/63
f 62/62/62 63/63/63 64/64/64
f 64/64/64 63/63/63 65/65/65
f 64/64/64 65/65/65 66/66/66
f 66/66/66 65/65/65 67/67/67
f 66/66/66 67/67/67 68/68/68
f 69/69/69 68/68/68 67/67/67
f 69/69/69 67/67/67 70/70/70
f 69/69/69 70/70/70 71/71/71
f 69/69/69 71/71/71 72/72/72
f 72/72/72 71/71/71 73/73/73
f 72/72/72 73/73/73 74/74/74
f 74/74/74 73/73/73 75/75/75
f 74/74/74 75/75/75 76/76/76
f 77/77/77 78/78/78 79/79/79
f 77/77/77 80/80/80 78/78/78
f 81/81/81 80/80/80 77/77/77
f 81/81/81 82/82/82 80/80/80
f 80/80/80 82/82/82 83/83/83
f 78/78/78 80/80/80 84/84/84
f 80/80/80 83/83/83 84/84/84
f 78/78/78 84/84/84 85/85/85
f 84/84/84 86/86/86 85/85/85
f 83/83/83 87/87/87 84/84/84
f 84/84/84 87/87/87 86/86/86
f 83/83/83 88/88/88 87/87/87
f 87/87/87 89/89/89 86/86/86
f 88/88/88 90/90/90 87/87/87
f 87/87/87 90/90/90 89/89/89
f 88/88/88 91/91/91 90/90/90
f 90/90/90 92/92/92 89/89/89
f 91/91/91 93/93/93 90/90/90
f 90/90/90 93/93/93 92/92/92
f 91/91/91 94/94/94 93/93/93
f 95/95/95 92/92/92 93/93/93
f 94/94/94 95/95/95 93/93/93
f 95/95/95 96/96/96 92/92/92
f 94/94/94 97/97/97 95/95/95
f 95/95/95 98/98/98 96/96/96
f 97/97/97 99/99/99 95/95/95
f 95/95/95 99/99/99 98/98/98
f 97/97/97 100/100/100 99/99/99
f 99/99/99 101/101/101 98/98/98
f 100/100/100 102/102/102 99/99/99
f 99/99/99 102/102/102 101/101/101
f 102/102/102 103/103/103 101/101/101
f 100/100/100 104/104/104 102/102/102
f 102/102/102 105/105/105 103/103/103
f 104/104/104 105/105/105 102/102/102
f 104/104/104 106/106/106 105/105/105
