g Details (10)
v 0.2503037 2.627807E-24 -4.291534E-08
v 0.2503037 0.9977584 -4.291534E-08
v -0.2503037 0.9977584 4.291534E-08
v -0.2503037 -2.627807E-24 4.291534E-08
v 0.1769915 -1.08376E-17 0.1769915
v 0.1769915 0.9977584 0.1769915
v -0.1769915 0.9977584 -0.1769915
v -0.1769915 1.08376E-17 -0.1769915
v 3.719569E-08 -1.532668E-17 0.2503037
v 3.719569E-08 0.9977584 0.2503037
v -2.529013E-08 0.9977584 -0.2503037
v -2.529013E-08 1.532668E-17 -0.2503037
v 0.1769915 1.08376E-17 -0.1769915
v 0.1769915 0.9977584 -0.1769915
v -0.1769914 0.9977584 0.1769915
v -0.1769914 -1.08376E-17 0.1769915

vn 1.714531E-07 0 1
vn 1.714531E-07 0 1
vn 1.714531E-07 0 1
vn 1.714531E-07 0 1
vn -0.7071068 0 0.7071068
vn -0.7071068 0 0.7071068
vn -0.7071068 0 0.7071068
vn -0.7071068 0 0.7071068
vn -1 0 1.2482E-07
vn -1 0 1.2482E-07
vn -1 0 1.2482E-07
vn -1 0 1.2482E-07
vn 0.7071068 0 0.7071068
vn 0.7071068 0 0.7071068
vn 0.7071068 0 0.7071068
vn 0.7071068 0 0.7071068

vt 0 0
vt 0 1
vt 1 1
vt 1 0
vt 0 0
vt 0 1
vt 1 1
vt 1 0
vt 0 0
vt 0 1
vt 1 1
vt 1 0
vt 0 0
vt 0 1
vt 1 1
vt 1 0

usemtl Grass_rushes
usemap Grass_rushes
f 1/1/1 2/2/2 3/3/3
f 1/1/1 3/3/3 4/4/4
f 5/5/5 6/6/6 7/7/7
f 5/5/5 7/7/7 8/8/8
f 9/9/9 10/10/10 11/11/11
f 9/9/9 11/11/11 12/12/12
f 13/13/13 14/14/14 15/15/15
f 13/13/13 15/15/15 16/16/16
