g Pole_horiz
v 0.7 -0.015 -1.5E-07
v 0.7 0 0.01499985
v 0.7 -0.01060661 0.01060646
v 0.7 0 -0.01500015
v 0.7 -0.01060661 -0.01060677
v 0.7 0.015 -1.5E-07
v 0.7 0.01060661 0.01060646
v 0.7 0.01060661 -0.01060677
v 0.7 0 -0.01500015
v 0.3 0.01060661 -0.01060661
v 0.7 0.01060661 -0.01060677
v 0.3 0 -0.01500008
v 0.7 -0.01060661 -0.01060677
v 0.09999999 0.01060661 -0.01060661
v 0.3 -0.01060661 -0.01060661
v 0.09999999 0 -0.015
v -0.1 0.01060661 -0.01060661
v 0.09999999 -0.01060661 -0.01060661
v -0.1 0 -0.015
v -0.1 -0.01060661 -0.01060661
v -0.3 0.01060661 -0.01060654
v -0.3 0 -0.01499992
v -0.3 -0.01060661 -0.01060654
v -0.45 -0.01060661 -0.01060654
v -0.45 0 -0.01499992
v -0.45 0.01060661 -0.01060654
v -0.7 0.01060661 -0.01060646
v -0.7 0 -0.01499985
v -0.7 -0.01060661 -0.01060646
v 0.7 0.015 -1.5E-07
v 0.3 0.01060661 0.01060654
v 0.7 0.01060661 0.01060646
v 0.3 0.015 -8E-08
v 0.7 0.01060661 -0.01060677
v 0.09999999 0.01060661 0.01060661
v 0.3 0.01060661 -0.01060661
v 0.09999999 0.015 0
v -0.1 0.01060661 0.01060661
v 0.09999999 0.01060661 -0.01060661
v -0.1 0.015 0
v -0.1 0.01060661 -0.01060661
v -0.3 0.01060661 0.01060661
v -0.3 0.015 8E-08
v -0.3 0.01060661 -0.01060654
v -0.45 0.01060661 -0.01060654
v -0.45 0.015 8E-08
v -0.45 0.01060661 0.01060669
v -0.7 0.01060661 0.01060677
v -0.7 0.015 1.5E-07
v -0.7 0.01060661 -0.01060646
v 0.7 0 0.01499985
v 0.3 -0.01060661 0.01060654
v 0.7 -0.01060661 0.01060646
v 0.3 0 0.01499992
v 0.7 0.01060661 0.01060646
v 0.09999999 -0.01060661 0.01060661
v 0.3 0.01060661 0.01060654
v 0.09999999 0 0.015
v -0.1 -0.01060661 0.01060661
v 0.09999999 0.01060661 0.01060661
v -0.1 0 0.015
v -0.1 0.01060661 0.01060661
v -0.3 -0.01060661 0.01060661
v -0.3 0 0.01500008
v -0.3 0.01060661 0.01060661
v -0.45 0.01060661 0.01060669
v -0.45 0 0.01500008
v -0.45 -0.01060661 0.01060669
v -0.7 -0.01060661 0.01060677
v -0.7 0 0.01500015
v -0.7 0.01060661 0.01060677
v 0.7 -0.015 -1.5E-07
v 0.3 -0.01060661 -0.01060661
v 0.7 -0.01060661 -0.01060677
v 0.3 -0.015 -8E-08
v 0.7 -0.01060661 0.01060646
v 0.09999999 -0.01060661 -0.01060661
v 0.3 -0.01060661 0.01060654
v 0.09999999 -0.015 0
v -0.1 -0.01060661 -0.01060661
v 0.09999999 -0.01060661 0.01060661
v -0.1 -0.015 0
v -0.1 -0.01060661 0.01060661
v -0.3 -0.01060661 -0.01060654
v -0.3 -0.015 8E-08
v -0.3 -0.01060661 0.01060661
v -0.45 -0.01060661 0.01060669
v -0.45 -0.015 8E-08
v -0.45 -0.01060661 -0.01060654
v -0.7 -0.01060661 -0.01060646
v -0.7 -0.015 1.5E-07
v -0.7 -0.01060661 0.01060677
v -0.7 0 -0.01499985
v -0.7 0.015 1.5E-07
v -0.7 0.01060661 -0.01060646
v -0.7 -0.015 1.5E-07
v -0.7 -0.01060661 -0.01060646
v -0.7 0 0.01500015
v -0.7 0.01060661 0.01060677
v -0.7 -0.01060661 0.01060677

vn 1 0 0
vn 1 0 0
vn 1 0 0
vn 1 0 0
vn 1 0 0
vn 1 0 0
vn 1 0 0
vn 1 0 0
vn 0 0.1365696 -0.9906304
vn 0 0.7071784 -0.7070353
vn 0 0.7972106 -0.6037012
vn 0 0 -1
vn 0 -0.6035804 -0.7973021
vn 0 0.7071784 -0.7070353
vn 0 -0.7071784 -0.7070353
vn 0 0 -1
vn 0 0.7071784 -0.7070353
vn 0 -0.7071784 -0.7070353
vn 0 0 -1
vn 0 -0.7071784 -0.7070353
vn 0 0.6035804 -0.7973022
vn 0 -0.1365696 -0.9906304
vn 0 -0.7972107 -0.6037012
vn 0 -0.6035804 -0.7973022
vn 0 0.1365696 -0.9906304
vn 0 0.7972107 -0.6037012
vn 0 0.6035804 -0.7973021
vn 0 -0.1365696 -0.9906304
vn 0 -0.7972106 -0.6037012
vn 0 0.9905967 0.1368146
vn 0 0.7071784 0.7070353
vn 0 0.6035804 0.7973021
vn 0 1 -9.997759E-07
vn 0 0.7972106 -0.6037012
vn 0 0.7071784 0.7070353
vn 0 0.7071784 -0.7070353
vn 0 1 0
vn 0 0.7071784 0.7070353
vn 0 0.7071784 -0.7070353
vn 0 1 0
vn 0 0.7071784 -0.7070353
vn 0 0.7972107 0.6037012
vn 0 0.9905968 -0.1368136
vn 0 0.6035804 -0.7973022
vn 0 0.7972107 -0.6037012
vn 0 0.9905965 0.1368156
vn 0 0.6035804 0.7973022
vn 0 0.7972106 0.6037012
vn 0 0.9905967 -0.1368146
vn 0 0.6035804 -0.7973021
vn 0 -0.1365696 0.9906304
vn 0 -0.7071784 0.7070353
vn 0 -0.7972106 0.6037012
vn 0 0 1
vn 0 0.6035804 0.7973021
vn 0 -0.7071784 0.7070353
vn 0 0.7071784 0.7070353
vn 0 0 1
vn 0 -0.7071784 0.7070353
vn 0 0.7071784 0.7070353
vn 0 0 1
vn 0 0.7071784 0.7070353
vn 0 -0.6035804 0.7973022
vn 0 0.1365696 0.9906304
vn 0 0.7972107 0.6037012
vn 0 0.6035804 0.7973022
vn 0 -0.1365696 0.9906304
vn 0 -0.7972107 0.6037012
vn 0 -0.6035804 0.7973021
vn 0 0.1365696 0.9906304
vn 0 0.7972106 0.6037012
vn 0 -0.9905965 -0.1368156
vn 0 -0.7071784 -0.7070353
vn 0 -0.6035804 -0.7973021
vn 0 -1 -9.997759E-07
vn 0 -0.7972106 0.6037012
vn 0 -0.7071784 -0.7070353
vn 0 -0.7071784 0.7070353
vn 0 -1 0
vn 0 -0.7071784 -0.7070353
vn 0 -0.7071784 0.7070353
vn 0 -1 0
vn 0 -0.7071784 0.7070353
vn 0 -0.7972107 -0.6037012
vn 0 -0.9905965 0.1368156
vn 0 -0.6035804 0.7973022
vn 0 -0.7972107 0.6037012
vn 0 -0.9905967 -0.1368146
vn 0 -0.6035804 -0.7973022
vn 0 -0.7972106 -0.6037012
vn 0 -0.9905967 0.1368146
vn 0 -0.6035804 0.7973021
vn -1 0 0
vn -1 0 0
vn -1 0 0
vn -1 0 0
vn -1 0 0
vn -1 0 0
vn -1 0 0
vn -1 0 0

vt 0.161962 0.538418
vt 0.148246 0.544099
vt 0.156281 0.544099
vt 0.15628 0.524703
vt 0.161962 0.530384
vt 0.142565 0.530384
vt 0.142565 0.538418
vt 0.148246 0.524703
vt 0.010189 0.981925
vt 0.289959 0.969555
vt 0.01 0.973875
vt 0.29002 0.977573
vt 0.010199 0.99
vt 0.42995 0.969398
vt 0.290002 0.985614
vt 0.429978 0.977421
vt 0.569936 0.969832
vt 0.429924 0.985466
vt 0.569936 0.977852
vt 0.569846 0.985895
vt 0.709936 0.970796
vt 0.709868 0.978817
vt 0.709796 0.986842
vt 0.814757 0.987793
vt 0.81483 0.979757
vt 0.814902 0.97172
vt 0.989834 0.973959
vt 0.989796 0.981975
vt 0.989656 0.99
vt 0.989738 0.945809
vt 0.709817 0.956859
vt 0.99 0.953887
vt 0.709774 0.948876
vt 0.989493 0.93767
vt 0.569831 0.955983
vt 0.709881 0.940842
vt 0.569824 0.947975
vt 0.429885 0.955112
vt 0.569942 0.939928
vt 0.429873 0.947101
vt 0.429984 0.939057
vt 0.289917 0.954427
vt 0.289952 0.946413
vt 0.28999 0.938392
vt 0.185021 0.937915
vt 0.184992 0.945948
vt 0.184961 0.953984
vt 0.010087 0.95371
vt 0.010046 0.945695
vt 0.01 0.93767
vt 0.989787 0.91742
vt 0.709878 0.926434
vt 0.989809 0.925453
vt 0.709864 0.918398
vt 0.989765 0.909389
vt 0.569904 0.926684
vt 0.709843 0.910366
vt 0.5699 0.918648
vt 0.429924 0.92673
vt 0.569887 0.910616
vt 0.429937 0.918694
vt 0.429936 0.910662
vt 0.289942 0.926454
vt 0.289968 0.918418
vt 0.289995 0.910382
vt 0.185025 0.910013
vt 0.184995 0.918047
vt 0.184966 0.92608
vt 0.01 0.925464
vt 0.010043 0.917426
vt 0.010087 0.909389
vt 0.989788 0.888556
vt 0.709827 0.89463
vt 0.989727 0.896589
vt 0.709862 0.886595
vt 0.989846 0.880526
vt 0.569878 0.894244
vt 0.709885 0.878562
vt 0.569896 0.886208
vt 0.429931 0.894184
vt 0.569902 0.878176
vt 0.429931 0.886148
vt 0.429912 0.878116
vt 0.289996 0.894552
vt 0.289962 0.886515
vt 0.289926 0.878479
vt 0.18495 0.878967
vt 0.184989 0.887
vt 0.185027 0.895033
vt 0.010101 0.896602
vt 0.010052 0.888562
vt 0.01 0.880526
vt 0.14991 0.560512
vt 0.144229 0.574228
vt 0.14991 0.568547
vt 0.136195 0.554831
vt 0.144229 0.554831
vt 0.130514 0.568546
vt 0.136195 0.574228
vt 0.130514 0.560512

usemtl Flag_mat
usemap Flag_mat
f 1/1/1 2/2/2 3/3/3
f 1/1/1 4/4/4 2/2/2
f 5/5/5 4/4/4 1/1/1
f 2/2/2 4/4/4 6/6/6
f 2/2/2 6/6/6 7/7/7
f 6/6/6 4/4/4 8/8/8
f 9/9/9 10/10/10 11/11/11
f 10/10/10 9/9/9 12/12/12
f 13/13/13 12/12/12 9/9/9
f 12/12/12 14/14/14 10/10/10
f 12/12/12 13/13/13 15/15/15
f 14/14/14 12/12/12 16/16/16
f 15/15/15 16/16/16 12/12/12
f 16/16/16 17/17/17 14/14/14
f 16/16/16 15/15/15 18/18/18
f 17/17/17 16/16/16 19/19/19
f 18/18/18 19/19/19 16/16/16
f 19/19/19 18/18/18 20/20/20
f 19/19/19 21/21/21 17/17/17
f 20/20/20 22/22/22 19/19/19
f 21/21/21 19/19/19 22/22/22
f 22/22/22 20/20/20 23/23/23
f 24/24/24 22/22/22 23/23/23
f 25/25/25 21/21/21 22/22/22
f 22/22/22 24/24/24 25/25/25
f 21/21/21 25/25/25 26/26/26
f 25/25/25 27/27/27 26/26/26
f 27/27/27 25/25/25 28/28/28
f 24/24/24 28/28/28 25/25/25
f 28/28/28 24/24/24 29/29/29
f 30/30/30 31/31/31 32/32/32
f 31/31/31 30/30/30 33/33/33
f 34/34/34 33/33/33 30/30/30
f 33/33/33 35/35/35 31/31/31
f 33/33/33 34/34/34 36/36/36
f 35/35/35 33/33/33 37/37/37
f 36/36/36 37/37/37 33/33/33
f 37/37/37 38/38/38 35/35/35
f 37/37/37 36/36/36 39/39/39
f 38/38/38 37/37/37 40/40/40
f 39/39/39 40/40/40 37/37/37
f 40/40/40 39/39/39 41/41/41
f 40/40/40 42/42/42 38/38/38
f 41/41/41 43/43/43 40/40/40
f 42/42/42 40/40/40 43/43/43
f 43/43/43 41/41/41 44/44/44
f 45/45/45 43/43/43 44/44/44
f 46/46/46 42/42/42 43/43/43
f 43/43/43 45/45/45 46/46/46
f 42/42/42 46/46/46 47/47/47
f 46/46/46 48/48/48 47/47/47
f 48/48/48 46/46/46 49/49/49
f 45/45/45 49/49/49 46/46/46
f 49/49/49 45/45/45 50/50/50
f 51/51/51 52/52/52 53/53/53
f 52/52/52 51/51/51 54/54/54
f 55/55/55 54/54/54 51/51/51
f 54/54/54 56/56/56 52/52/52
f 54/54/54 55/55/55 57/57/57
f 56/56/56 54/54/54 58/58/58
f 57/57/57 58/58/58 54/54/54
f 58/58/58 59/59/59 56/56/56
f 58/58/58 57/57/57 60/60/60
f 59/59/59 58/58/58 61/61/61
f 60/60/60 61/61/61 58/58/58
f 61/61/61 60/60/60 62/62/62
f 61/61/61 63/63/63 59/59/59
f 62/62/62 64/64/64 61/61/61
f 63/63/63 61/61/61 64/64/64
f 64/64/64 62/62/62 65/65/65
f 66/66/66 64/64/64 65/65/65
f 67/67/67 63/63/63 64/64/64
f 64/64/64 66/66/66 67/67/67
f 63/63/63 67/67/67 68/68/68
f 67/67/67 69/69/69 68/68/68
f 69/69/69 67/67/67 70/70/70
f 66/66/66 70/70/70 67/67/67
f 70/70/70 66/66/66 71/71/71
f 72/72/72 73/73/73 74/74/74
f 73/73/73 72/72/72 75/75/75
f 76/76/76 75/75/75 72/72/72
f 75/75/75 77/77/77 73/73/73
f 75/75/75 76/76/76 78/78/78
f 77/77/77 75/75/75 79/79/79
f 78/78/78 79/79/79 75/75/75
f 79/79/79 80/80/80 77/77/77
f 79/79/79 78/78/78 81/81/81
f 80/80/80 79/79/79 82/82/82
f 81/81/81 82/82/82 79/79/79
f 82/82/82 81/81/81 83/83/83
f 82/82/82 84/84/84 80/80/80
f 83/83/83 85/85/85 82/82/82
f 84/84/84 82/82/82 85/85/85
f 85/85/85 83/83/83 86/86/86
f 87/87/87 85/85/85 86/86/86
f 88/88/88 84/84/84 85/85/85
f 85/85/85 87/87/87 88/88/88
f 84/84/84 88/88/88 89/89/89
f 88/88/88 90/90/90 89/89/89
f 90/90/90 88/88/88 91/91/91
f 87/87/87 91/91/91 88/88/88
f 91/91/91 87/87/87 92/92/92
f 93/93/93 94/94/94 95/95/95
f 93/93/93 96/96/96 94/94/94
f 97/97/97 96/96/96 93/93/93
f 94/94/94 96/96/96 98/98/98
f 94/94/94 98/98/98 99/99/99
f 98/98/98 96/96/96 100/100/100
