g Pole_vert
v 0 -0.015 0
v 0.01477795 0 0.00257156
v 0.01044956 -0.01060661 0.00181831
v -0.01477795 0 -0.00257156
v -0.01044956 -0.01060661 -0.00181831
v 0 0.015 0
v 0.01044956 0.01060661 0.00181831
v -0.01044956 0.01060661 -0.00181831
v -0.01477795 0 -0.00257156
v -0.04473663 0.01060661 0.1952207
v -0.01044956 0.01060661 -0.00181831
v -0.04906498 0 0.1944675
v -0.01044956 -0.01060661 -0.00181831
v -0.0790237 0.01060661 0.3922598
v -0.04473663 -0.01060661 0.1952207
v -0.08335205 0 0.3915066
v -0.1133108 0.01060661 0.5892989
v -0.0790237 -0.01060661 0.3922598
v -0.1176391 0 0.5885457
v -0.1133108 -0.01060661 0.5892989
v -0.1475978 0.01060661 0.786338
v -0.1519262 0 0.7855847
v -0.1475978 -0.01060661 0.786338
v -0.1733131 -0.01060661 0.9341173
v -0.1776415 0 0.933364
v -0.1733131 0.01060661 0.9341173
v -0.1818849 0.01060661 0.983377
v -0.1862132 0 0.9826238
v -0.1818849 -0.01060661 0.983377
v 0 0.015 0
v -0.02383747 0.01060661 0.1988574
v 0.01044956 0.01060661 0.00181831
v -0.03428707 0.015 0.1970391
v -0.01044956 0.01060661 -0.00181831
v -0.05812454 0.01060661 0.3958965
v -0.04473663 0.01060661 0.1952207
v -0.06857414 0.015 0.3940781
v -0.09241161 0.01060661 0.5929356
v -0.0790237 0.01060661 0.3922598
v -0.1028612 0.015 0.5911173
v -0.1133108 0.01060661 0.5892989
v -0.1266987 0.01060661 0.7899746
v -0.1371482 0.015 0.7881563
v -0.1475978 0.01060661 0.786338
v -0.1733131 0.01060661 0.9341173
v -0.1628635 0.015 0.9359356
v -0.152414 0.01060661 0.9377539
v -0.1609857 0.01060661 0.9870137
v -0.1714353 0.015 0.9851953
v -0.1818849 0.01060661 0.983377
v 0.01477795 0 0.00257156
v -0.02383747 -0.01060661 0.1988574
v 0.01044956 -0.01060661 0.00181831
v -0.01950912 0 0.1996106
v 0.01044956 0.01060661 0.00181831
v -0.05812454 -0.01060661 0.3958965
v -0.02383747 0.01060661 0.1988574
v -0.0537962 0 0.3966497
v -0.09241161 -0.01060661 0.5929356
v -0.05812454 0.01060661 0.3958965
v -0.08808327 0 0.5936888
v -0.09241161 0.01060661 0.5929356
v -0.1266987 -0.01060661 0.7899746
v -0.1223703 0 0.7907279
v -0.1266987 0.01060661 0.7899746
v -0.152414 0.01060661 0.9377539
v -0.1480856 0 0.9385071
v -0.152414 -0.01060661 0.9377539
v -0.1609857 -0.01060661 0.9870137
v -0.1566574 0 0.9877669
v -0.1609857 0.01060661 0.9870137
v 0 -0.015 0
v -0.04473663 -0.01060661 0.1952207
v -0.01044956 -0.01060661 -0.00181831
v -0.03428707 -0.015 0.1970391
v 0.01044956 -0.01060661 0.00181831
v -0.0790237 -0.01060661 0.3922598
v -0.02383747 -0.01060661 0.1988574
v -0.06857414 -0.015 0.3940781
v -0.1133108 -0.01060661 0.5892989
v -0.05812454 -0.01060661 0.3958965
v -0.1028612 -0.015 0.5911173
v -0.09241161 -0.01060661 0.5929356
v -0.1475978 -0.01060661 0.786338
v -0.1371482 -0.015 0.7881563
v -0.1266987 -0.01060661 0.7899746
v -0.152414 -0.01060661 0.9377539
v -0.1628635 -0.015 0.9359356
v -0.1733131 -0.01060661 0.9341173
v -0.1818849 -0.01060661 0.983377
v -0.1714353 -0.015 0.9851953
v -0.1609857 -0.01060661 0.9870137
v -0.1862132 0 0.9826238
v -0.1714353 0.015 0.9851953
v -0.1818849 0.01060661 0.983377
v -0.1714353 -0.015 0.9851953
v -0.1818849 -0.01060661 0.983377
v -0.1566574 0 0.9877669
v -0.1609857 0.01060661 0.9870137
v -0.1609857 -0.01060661 0.9870137

vn 0.171432 0 -0.985196
vn 0.1714348 0 -0.9851955
vn 0.1714348 1.192092E-05 -0.9851955
vn 0.1714348 0 -0.9851955
vn 0.1714348 -1.192092E-05 -0.9851955
vn 0.171432 0 -0.985196
vn 0.1714348 -1.192092E-05 -0.9851955
vn 0.1714348 1.192092E-05 -0.9851955
vn -0.9759375 0.1367723 -0.1698216
vn -0.6966443 0.7070868 -0.1213048
vn -0.5948072 0.7971771 -0.1035036
vn -0.9851893 -9.999959E-07 -0.1714699
vn -0.7853741 -0.603747 -0.1366644
vn -0.6966443 0.7070868 -0.1213048
vn -0.6966443 -0.7070868 -0.1213048
vn -0.9852229 0 -0.1712768
vn -0.6966443 0.7070868 -0.1213048
vn -0.6966443 -0.7070868 -0.1213048
vn -0.9852229 9.999817E-07 -0.1712768
vn -0.6966443 -0.7070868 -0.1213048
vn -0.7853755 0.6037664 -0.1365705
vn -0.9758833 -0.1367714 -0.1701335
vn -0.5947914 -0.7971559 -0.1037571
vn -0.785412 -0.6037212 -0.1365602
vn -0.9758877 0.1367597 -0.1701176
vn -0.5948531 0.7971108 -0.1037512
vn -0.785412 0.6037212 -0.1365602
vn -0.975888 -0.1367577 -0.1701177
vn -0.5948531 -0.7971108 -0.1037512
vn 0.1347476 0.9906025 0.02344793
vn 0.696632 0.7070986 0.1213068
vn 0.7853741 0.603747 0.1366644
vn 0 1 0
vn -0.5948072 0.7971771 -0.1035036
vn 0.6966443 0.7070868 0.1213048
vn -0.6966443 0.7070868 -0.1213048
vn 0 1 0
vn 0.6966443 0.7070868 0.1213048
vn -0.6966443 0.7070868 -0.1213048
vn 0 1 0
vn -0.6966443 0.7070868 -0.1213048
vn 0.5947914 0.7971559 0.1037571
vn -0.134753 0.9905969 -0.02365093
vn -0.7853755 0.6037664 -0.1365705
vn -0.5948531 0.7971108 -0.1037512
vn 0.1346594 0.9906096 0.02365122
vn 0.7853755 0.6037664 0.1365705
vn 0.5948531 0.7971108 0.1037512
vn -0.1346594 0.9906096 -0.02365122
vn -0.785412 0.6037212 -0.1365602
vn 0.9759375 -0.1367723 0.1698216
vn 0.696632 -0.7070986 0.1213068
vn 0.5948072 -0.7971771 0.1035036
vn 0.9851893 9.999959E-07 0.1714699
vn 0.7853741 0.603747 0.1366644
vn 0.6966443 -0.7070868 0.1213048
vn 0.696632 0.7070986 0.1213068
vn 0.9852216 0 0.1712849
vn 0.6966443 -0.7070868 0.1213048
vn 0.6966443 0.7070868 0.1213048
vn 0.9852229 -9.999817E-07 0.1712768
vn 0.6966443 0.7070868 0.1213048
vn 0.7853755 -0.6037664 0.1365705
vn 0.9758833 0.1367714 0.1701335
vn 0.5947914 0.7971559 0.1037571
vn 0.7853755 0.6037664 0.1365705
vn 0.9758832 -0.1367723 0.1701335
vn 0.5947914 -0.7971559 0.1037571
vn 0.785412 -0.6037212 0.1365602
vn 0.9758833 0.1367714 0.1701335
vn 0.5948531 0.7971108 0.1037512
vn -0.1347486 -0.9906024 -0.02344793
vn -0.6966443 -0.7070868 -0.1213048
vn -0.7853741 -0.603747 -0.1366644
vn 0 -1 0
vn 0.5948072 -0.7971771 0.1035036
vn -0.6966443 -0.7070868 -0.1213048
vn 0.696632 -0.7070986 0.1213068
vn 0 -1 0
vn -0.6966443 -0.7070868 -0.1213048
vn 0.6966443 -0.7070868 0.1213048
vn 0 -1 0
vn 0.6966443 -0.7070868 0.1213048
vn -0.5947914 -0.7971559 -0.1037571
vn 0.134753 -0.9905969 0.02365093
vn 0.7853755 -0.6037664 0.1365705
vn 0.5947914 -0.7971559 0.1037571
vn -0.1346594 -0.9906096 -0.02365122
vn -0.785412 -0.6037212 -0.1365602
vn -0.5948531 -0.7971108 -0.1037512
vn 0.1346594 -0.9906096 0.02365122
vn 0.785412 -0.6037212 0.1365602
vn -0.1715102 0 0.9851823
vn -0.1715102 0 0.9851823
vn -0.1715102 -1.192368E-05 0.9851823
vn -0.1715102 0 0.9851823
vn -0.1715102 1.192368E-05 0.9851823
vn -0.1715102 0 0.9851823
vn -0.1715102 1.192368E-05 0.9851823
vn -0.1715102 -1.192368E-05 0.9851823

vt 0.03878 0.554831
vt 0.044461 0.568547
vt 0.044461 0.560512
vt 0.025064 0.560512
vt 0.030745 0.554831
vt 0.030745 0.574228
vt 0.03878 0.574228
vt 0.025064 0.568547
vt 0.709928 0.858441
vt 0.569835 0.86304
vt 0.709736 0.866473
vt 0.569998 0.855007
vt 0.710122 0.850407
vt 0.429971 0.86065
vt 0.570162 0.846972
vt 0.430046 0.852617
vt 0.290136 0.860236
vt 0.430124 0.84458
vt 0.290077 0.852205
vt 0.290022 0.844168
vt 0.150343 0.862531
vt 0.150136 0.854504
vt 0.149921 0.846476
vt 0.044976 0.849427
vt 0.045201 0.857457
vt 0.045426 0.865487
vt 0.01045 0.866471
vt 0.010225 0.858441
vt 0.01 0.85041
vt 0.709844 0.825297
vt 0.569856 0.832738
vt 0.709807 0.833332
vt 0.569881 0.824704
vt 0.709879 0.817262
vt 0.429911 0.832376
vt 0.569911 0.816667
vt 0.429918 0.824342
vt 0.289971 0.832345
vt 0.429934 0.816305
vt 0.289954 0.824313
vt 0.289952 0.816276
vt 0.150029 0.832725
vt 0.149997 0.824694
vt 0.149965 0.816662
vt 0.044991 0.81711
vt 0.045026 0.825143
vt 0.04506 0.833177
vt 0.01007 0.833329
vt 0.010035 0.825296
vt 0.01 0.817262
vt 0.709816 0.795121
vt 0.569855 0.80319
vt 0.709818 0.803155
vt 0.569853 0.795156
vt 0.709814 0.787086
vt 0.429891 0.803204
vt 0.569852 0.787121
vt 0.429889 0.79517
vt 0.289928 0.803201
vt 0.429891 0.787135
vt 0.289926 0.795168
vt 0.289929 0.787133
vt 0.149963 0.803183
vt 0.149964 0.79515
vt 0.149966 0.787117
vt 0.044994 0.787094
vt 0.044992 0.795128
vt 0.044991 0.803162
vt 0.01 0.803154
vt 0.010001 0.79512
vt 0.010003 0.787086
vt 0.709825 0.767853
vt 0.569866 0.775964
vt 0.709829 0.775887
vt 0.569863 0.76793
vt 0.709822 0.75982
vt 0.4299 0.776047
vt 0.569856 0.759897
vt 0.429899 0.768012
vt 0.289932 0.776088
vt 0.429893 0.759979
vt 0.289937 0.768053
vt 0.289933 0.76002
vt 0.149964 0.776028
vt 0.149971 0.767992
vt 0.149978 0.759956
vt 0.045007 0.759854
vt 0.044999 0.767889
vt 0.044991 0.775923
vt 0.01 0.775888
vt 0.010008 0.767854
vt 0.010016 0.75982
vt 0.174357 0.574228
vt 0.160642 0.568547
vt 0.166323 0.574228
vt 0.180038 0.560513
vt 0.180038 0.568547
vt 0.166323 0.554831
vt 0.160642 0.560513
vt 0.174357 0.554831

usemtl Flag_mat
usemap Flag_mat
f 1/1/1 2/2/2 3/3/3
f 1/1/1 4/4/4 2/2/2
f 5/5/5 4/4/4 1/1/1
f 2/2/2 4/4/4 6/6/6
f 2/2/2 6/6/6 7/7/7
f 6/6/6 4/4/4 8/8/8
f 9/9/9 10/10/10 11/11/11
f 10/10/10 9/9/9 12/12/12
f 13/13/13 12/12/12 9/9/9
f 12/12/12 14/14/14 10/10/10
f 12/12/12 13/13/13 15/15/15
f 14/14/14 12/12/12 16/16/16
f 15/15/15 16/16/16 12/12/12
f 16/16/16 17/17/17 14/14/14
f 16/16/16 15/15/15 18/18/18
f 17/17/17 16/16/16 19/19/19
f 18/18/18 19/19/19 16/16/16
f 19/19/19 18/18/18 20/20/20
f 19/19/19 21/21/21 17/17/17
f 20/20/20 22/22/22 19/19/19
f 21/21/21 19/19/19 22/22/22
f 22/22/22 20/20/20 23/23/23
f 24/24/24 22/22/22 23/23/23
f 25/25/25 21/21/21 22/22/22
f 22/22/22 24/24/24 25/25/25
f 21/21/21 25/25/25 26/26/26
f 25/25/25 27/27/27 26/26/26
f 27/27/27 25/25/25 28/28/28
f 24/24/24 28/28/28 25/25/25
f 28/28/28 24/24/24 29/29/29
f 30/30/30 31/31/31 32/32/32
f 31/31/31 30/30/30 33/33/33
f 34/34/34 33/33/33 30/30/30
f 33/33/33 35/35/35 31/31/31
f 33/33/33 34/34/34 36/36/36
f 35/35/35 33/33/33 37/37/37
f 36/36/36 37/37/37 33/33/33
f 37/37/37 38/38/38 35/35/35
f 37/37/37 36/36/36 39/39/39
f 38/38/38 37/37/37 40/40/40
f 39/39/39 40/40/40 37/37/37
f 40/40/40 39/39/39 41/41/41
f 40/40/40 42/42/42 38/38/38
f 41/41/41 43/43/43 40/40/40
f 42/42/42 40/40/40 43/43/43
f 43/43/43 41/41/41 44/44/44
f 45/45/45 43/43/43 44/44/44
f 46/46/46 42/42/42 43/43/43
f 43/43/43 45/45/45 46/46/46
f 42/42/42 46/46/46 47/47/47
f 46/46/46 48/48/48 47/47/47
f 48/48/48 46/46/46 49/49/49
f 45/45/45 49/49/49 46/46/46
f 49/49/49 45/45/45 50/50/50
f 51/51/51 52/52/52 53/53/53
f 52/52/52 51/51/51 54/54/54
f 55/55/55 54/54/54 51/51/51
f 54/54/54 56/56/56 52/52/52
f 54/54/54 55/55/55 57/57/57
f 56/56/56 54/54/54 58/58/58
f 57/57/57 58/58/58 54/54/54
f 58/58/58 59/59/59 56/56/56
f 58/58/58 57/57/57 60/60/60
f 59/59/59 58/58/58 61/61/61
f 60/60/60 61/61/61 58/58/58
f 61/61/61 60/60/60 62/62/62
f 61/61/61 63/63/63 59/59/59
f 62/62/62 64/64/64 61/61/61
f 63/63/63 61/61/61 64/64/64
f 64/64/64 62/62/62 65/65/65
f 66/66/66 64/64/64 65/65/65
f 67/67/67 63/63/63 64/64/64
f 64/64/64 66/66/66 67/67/67
f 63/63/63 67/67/67 68/68/68
f 67/67/67 69/69/69 68/68/68
f 69/69/69 67/67/67 70/70/70
f 66/66/66 70/70/70 67/67/67
f 70/70/70 66/66/66 71/71/71
f 72/72/72 73/73/73 74/74/74
f 73/73/73 72/72/72 75/75/75
f 76/76/76 75/75/75 72/72/72
f 75/75/75 77/77/77 73/73/73
f 75/75/75 76/76/76 78/78/78
f 77/77/77 75/75/75 79/79/79
f 78/78/78 79/79/79 75/75/75
f 79/79/79 80/80/80 77/77/77
f 79/79/79 78/78/78 81/81/81
f 80/80/80 79/79/79 82/82/82
f 81/81/81 82/82/82 79/79/79
f 82/82/82 81/81/81 83/83/83
f 82/82/82 84/84/84 80/80/80
f 83/83/83 85/85/85 82/82/82
f 84/84/84 82/82/82 85/85/85
f 85/85/85 83/83/83 86/86/86
f 87/87/87 85/85/85 86/86/86
f 88/88/88 84/84/84 85/85/85
f 85/85/85 87/87/87 88/88/88
f 84/84/84 88/88/88 89/89/89
f 88/88/88 90/90/90 89/89/89
f 90/90/90 88/88/88 91/91/91
f 87/87/87 91/91/91 88/88/88
f 91/91/91 87/87/87 92/92/92
f 93/93/93 94/94/94 95/95/95
f 93/93/93 96/96/96 94/94/94
f 97/97/97 96/96/96 93/93/93
f 94/94/94 96/96/96 98/98/98
f 94/94/94 98/98/98 99/99/99
f 98/98/98 96/96/96 100/100/100
